<mxfile host="Electron" agent="Mozilla/5.0 (Macintosh; Intel Mac OS X 10_15_7) AppleWebKit/537.36 (KHTML, like Gecko) draw.io/27.0.9 Chrome/134.0.6998.205 Electron/35.4.0 Safari/537.36" version="27.0.9" pages="2">
  <diagram name="netbox" id="rieouXLNWcdWIiUljQD6">
    <mxGraphModel dx="948" dy="625" grid="1" gridSize="10" guides="1" tooltips="1" connect="1" arrows="1" fold="1" page="1" pageScale="1" pageWidth="850" pageHeight="1100" math="0" shadow="0">
      <root>
        <mxCell id="0" />
        <mxCell id="1" parent="0" />
        <mxCell id="Jwh1fhb28KCc5R-YjGfv-4" value="FRR&amp;nbsp;&lt;span style=&quot;background-color: transparent; color: light-dark(rgb(0, 0, 0), rgb(255, 255, 255));&quot;&gt;Config&lt;/span&gt;&lt;div&gt;&lt;span style=&quot;background-color: transparent; color: light-dark(rgb(0, 0, 0), rgb(255, 255, 255));&quot;&gt;(File)&lt;/span&gt;&lt;/div&gt;" style="rounded=1;whiteSpace=wrap;html=1;fontSize=14;fillColor=#f5f5f5;strokeColor=#000000;" parent="1" vertex="1">
          <mxGeometry x="696" y="411" width="120" height="60" as="geometry" />
        </mxCell>
        <mxCell id="MDP3Hl-DzXWnHkBoJs9L-30" value="" style="rounded=0;whiteSpace=wrap;html=1;fillColor=light-dark(#e1ebf9, #1d293b);strokeColor=#003366;" parent="1" vertex="1">
          <mxGeometry x="210" y="200" width="420" height="390" as="geometry" />
        </mxCell>
        <mxCell id="MDP3Hl-DzXWnHkBoJs9L-20" value="RDF" style="edgeStyle=orthogonalEdgeStyle;rounded=0;orthogonalLoop=1;jettySize=auto;html=1;strokeColor=default;strokeWidth=2;align=center;verticalAlign=middle;fontFamily=Helvetica;fontSize=11;fontColor=default;labelBackgroundColor=default;endArrow=classic;labelBorderColor=default;fontStyle=1" parent="1" source="MDP3Hl-DzXWnHkBoJs9L-1" target="MDP3Hl-DzXWnHkBoJs9L-10" edge="1">
          <mxGeometry relative="1" as="geometry">
            <Array as="points">
              <mxPoint x="380" y="255" />
              <mxPoint x="380" y="255" />
            </Array>
            <mxPoint as="offset" />
          </mxGeometry>
        </mxCell>
        <mxCell id="MDP3Hl-DzXWnHkBoJs9L-1" value="Lifting&lt;div&gt;(Camel)&lt;/div&gt;" style="rounded=1;whiteSpace=wrap;html=1;fontSize=14;fillColor=#fff2cc;strokeColor=#000000;" parent="1" vertex="1">
          <mxGeometry x="230" y="230" width="90" height="50" as="geometry" />
        </mxCell>
        <mxCell id="MDP3Hl-DzXWnHkBoJs9L-24" value="RDF" style="edgeStyle=orthogonalEdgeStyle;rounded=0;orthogonalLoop=1;jettySize=auto;html=1;strokeColor=default;strokeWidth=2;align=center;verticalAlign=middle;fontFamily=Helvetica;fontSize=11;fontColor=default;labelBackgroundColor=default;endArrow=classic;labelBorderColor=default;fontStyle=1" parent="1" target="MDP3Hl-DzXWnHkBoJs9L-2" edge="1">
          <mxGeometry relative="1" as="geometry">
            <mxPoint x="470" y="355" as="sourcePoint" />
            <Array as="points">
              <mxPoint x="510" y="355" />
              <mxPoint x="510" y="355" />
            </Array>
          </mxGeometry>
        </mxCell>
        <mxCell id="MDP3Hl-DzXWnHkBoJs9L-26" value="YAML" style="edgeStyle=orthogonalEdgeStyle;rounded=0;orthogonalLoop=1;jettySize=auto;html=1;strokeColor=default;strokeWidth=2;align=center;verticalAlign=middle;fontFamily=Helvetica;fontSize=11;fontColor=default;labelBackgroundColor=default;endArrow=classic;labelBorderColor=default;fontStyle=1" parent="1" source="MDP3Hl-DzXWnHkBoJs9L-2" target="MDP3Hl-DzXWnHkBoJs9L-12" edge="1">
          <mxGeometry relative="1" as="geometry" />
        </mxCell>
        <mxCell id="MDP3Hl-DzXWnHkBoJs9L-2" value="Lowering&lt;div&gt;(Camel)&lt;/div&gt;" style="rounded=1;whiteSpace=wrap;html=1;fontSize=14;fillColor=#fff2cc;strokeColor=#000000;" parent="1" vertex="1">
          <mxGeometry x="530" y="330" width="90" height="50" as="geometry" />
        </mxCell>
        <mxCell id="MDP3Hl-DzXWnHkBoJs9L-21" value="RDF" style="edgeStyle=orthogonalEdgeStyle;rounded=0;orthogonalLoop=1;jettySize=auto;html=1;strokeColor=default;strokeWidth=2;align=center;verticalAlign=middle;fontFamily=Helvetica;fontSize=11;fontColor=default;labelBackgroundColor=default;endArrow=classic;labelBorderColor=default;fontStyle=1" parent="1" source="MDP3Hl-DzXWnHkBoJs9L-3" target="MDP3Hl-DzXWnHkBoJs9L-10" edge="1">
          <mxGeometry relative="1" as="geometry">
            <Array as="points">
              <mxPoint x="380" y="325" />
              <mxPoint x="380" y="325" />
            </Array>
          </mxGeometry>
        </mxCell>
        <mxCell id="MDP3Hl-DzXWnHkBoJs9L-3" value="Lifting&lt;div&gt;(Camel)&lt;/div&gt;" style="rounded=1;whiteSpace=wrap;html=1;fontSize=14;fillColor=#fff2cc;strokeColor=#000000;" parent="1" vertex="1">
          <mxGeometry x="230" y="300" width="90" height="50" as="geometry" />
        </mxCell>
        <mxCell id="MDP3Hl-DzXWnHkBoJs9L-16" value="JSON" style="edgeStyle=orthogonalEdgeStyle;rounded=0;orthogonalLoop=1;jettySize=auto;html=1;strokeWidth=2;labelBorderColor=default;spacing=2;spacingBottom=0;spacingLeft=0;fontStyle=1" parent="1" source="MDP3Hl-DzXWnHkBoJs9L-4" target="MDP3Hl-DzXWnHkBoJs9L-1" edge="1">
          <mxGeometry relative="1" as="geometry">
            <mxPoint as="offset" />
          </mxGeometry>
        </mxCell>
        <mxCell id="MDP3Hl-DzXWnHkBoJs9L-4" value="NetBox&amp;nbsp;&lt;span style=&quot;background-color: transparent; color: light-dark(rgb(0, 0, 0), rgb(255, 255, 255));&quot;&gt;Devices&lt;/span&gt;&lt;div&gt;&lt;span style=&quot;background-color: transparent; color: light-dark(rgb(0, 0, 0), rgb(255, 255, 255));&quot;&gt;(REST)&lt;/span&gt;&lt;/div&gt;" style="rounded=1;whiteSpace=wrap;html=1;fontSize=14;fillColor=#f5f5f5;fontColor=#333333;strokeColor=#000000;" parent="1" vertex="1">
          <mxGeometry x="20" y="225" width="130" height="60" as="geometry" />
        </mxCell>
        <mxCell id="MDP3Hl-DzXWnHkBoJs9L-17" value="JSON" style="edgeStyle=orthogonalEdgeStyle;rounded=0;orthogonalLoop=1;jettySize=auto;html=1;strokeWidth=2;labelBorderColor=default;fontStyle=1" parent="1" source="MDP3Hl-DzXWnHkBoJs9L-5" target="MDP3Hl-DzXWnHkBoJs9L-3" edge="1">
          <mxGeometry relative="1" as="geometry" />
        </mxCell>
        <mxCell id="MDP3Hl-DzXWnHkBoJs9L-5" value="NetBox&amp;nbsp;&lt;span style=&quot;background-color: transparent; color: light-dark(rgb(0, 0, 0), rgb(255, 255, 255));&quot;&gt;Interfaces&lt;/span&gt;&lt;div&gt;&lt;span style=&quot;background-color: transparent; color: light-dark(rgb(0, 0, 0), rgb(255, 255, 255));&quot;&gt;(REST)&lt;/span&gt;&lt;/div&gt;" style="rounded=1;whiteSpace=wrap;html=1;fontSize=14;fillColor=#f5f5f5;fontColor=#333333;strokeColor=#000000;" parent="1" vertex="1">
          <mxGeometry x="20" y="293.75" width="130" height="62.5" as="geometry" />
        </mxCell>
        <mxCell id="MDP3Hl-DzXWnHkBoJs9L-18" value="JSON" style="edgeStyle=orthogonalEdgeStyle;rounded=0;orthogonalLoop=1;jettySize=auto;html=1;strokeWidth=2;labelBorderColor=default;fontStyle=1" parent="1" source="MDP3Hl-DzXWnHkBoJs9L-28" target="MDP3Hl-DzXWnHkBoJs9L-8" edge="1">
          <mxGeometry relative="1" as="geometry">
            <mxPoint x="150" y="395" as="sourcePoint" />
          </mxGeometry>
        </mxCell>
        <mxCell id="MDP3Hl-DzXWnHkBoJs9L-19" value="JSON" style="edgeStyle=orthogonalEdgeStyle;rounded=0;orthogonalLoop=1;jettySize=auto;html=1;strokeWidth=2;labelBorderColor=default;fontStyle=1" parent="1" source="MDP3Hl-DzXWnHkBoJs9L-29" target="MDP3Hl-DzXWnHkBoJs9L-9" edge="1">
          <mxGeometry relative="1" as="geometry">
            <mxPoint x="150" y="465" as="sourcePoint" />
          </mxGeometry>
        </mxCell>
        <mxCell id="MDP3Hl-DzXWnHkBoJs9L-22" value="RDF" style="edgeStyle=orthogonalEdgeStyle;rounded=0;orthogonalLoop=1;jettySize=auto;html=1;strokeColor=default;strokeWidth=2;align=center;verticalAlign=middle;fontFamily=Helvetica;fontSize=11;fontColor=default;labelBackgroundColor=default;endArrow=classic;labelBorderColor=default;fontStyle=1" parent="1" source="MDP3Hl-DzXWnHkBoJs9L-8" target="MDP3Hl-DzXWnHkBoJs9L-10" edge="1">
          <mxGeometry relative="1" as="geometry">
            <Array as="points">
              <mxPoint x="380" y="395" />
              <mxPoint x="380" y="395" />
            </Array>
          </mxGeometry>
        </mxCell>
        <mxCell id="MDP3Hl-DzXWnHkBoJs9L-8" value="Lifting&lt;div&gt;(Camel)&lt;/div&gt;" style="rounded=1;whiteSpace=wrap;html=1;fontSize=14;fillColor=#fff2cc;strokeColor=#000000;" parent="1" vertex="1">
          <mxGeometry x="230" y="370" width="90" height="50" as="geometry" />
        </mxCell>
        <mxCell id="MDP3Hl-DzXWnHkBoJs9L-23" value="RDF" style="edgeStyle=orthogonalEdgeStyle;rounded=0;orthogonalLoop=1;jettySize=auto;html=1;strokeColor=default;strokeWidth=2;align=center;verticalAlign=middle;fontFamily=Helvetica;fontSize=11;fontColor=default;labelBackgroundColor=default;endArrow=classic;labelBorderColor=default;fontStyle=1" parent="1" source="MDP3Hl-DzXWnHkBoJs9L-9" target="MDP3Hl-DzXWnHkBoJs9L-10" edge="1">
          <mxGeometry relative="1" as="geometry">
            <Array as="points">
              <mxPoint x="380" y="465" />
              <mxPoint x="380" y="465" />
            </Array>
          </mxGeometry>
        </mxCell>
        <mxCell id="MDP3Hl-DzXWnHkBoJs9L-9" value="Lifting&lt;div&gt;(Camel)&lt;/div&gt;" style="rounded=1;whiteSpace=wrap;html=1;fontSize=14;fillColor=#fff2cc;strokeColor=#000000;" parent="1" vertex="1">
          <mxGeometry x="230" y="440" width="90" height="50" as="geometry" />
        </mxCell>
        <mxCell id="MDP3Hl-DzXWnHkBoJs9L-10" value="Knowledge&lt;div&gt;Graph&lt;/div&gt;&lt;div&gt;(GraphDB)&lt;/div&gt;" style="rounded=1;whiteSpace=wrap;html=1;fontSize=14;fillColor=#d5e8d4;strokeColor=#000000;" parent="1" vertex="1">
          <mxGeometry x="380" y="230" width="90" height="330" as="geometry" />
        </mxCell>
        <mxCell id="MDP3Hl-DzXWnHkBoJs9L-25" value="RDF" style="edgeStyle=orthogonalEdgeStyle;rounded=0;orthogonalLoop=1;jettySize=auto;html=1;strokeColor=default;strokeWidth=2;align=center;verticalAlign=middle;fontFamily=Helvetica;fontSize=11;fontColor=default;labelBackgroundColor=default;endArrow=classic;labelBorderColor=default;fontStyle=1" parent="1" target="MDP3Hl-DzXWnHkBoJs9L-11" edge="1">
          <mxGeometry relative="1" as="geometry">
            <mxPoint x="470" y="435.0000000000001" as="sourcePoint" />
            <Array as="points">
              <mxPoint x="510" y="435" />
              <mxPoint x="510" y="435" />
            </Array>
          </mxGeometry>
        </mxCell>
        <mxCell id="MDP3Hl-DzXWnHkBoJs9L-27" value="TXT" style="edgeStyle=orthogonalEdgeStyle;rounded=0;orthogonalLoop=1;jettySize=auto;html=1;strokeColor=default;strokeWidth=2;align=center;verticalAlign=middle;fontFamily=Helvetica;fontSize=11;fontColor=default;labelBackgroundColor=default;endArrow=classic;labelBorderColor=default;fontStyle=1" parent="1" source="MDP3Hl-DzXWnHkBoJs9L-11" target="MDP3Hl-DzXWnHkBoJs9L-13" edge="1">
          <mxGeometry relative="1" as="geometry" />
        </mxCell>
        <mxCell id="MDP3Hl-DzXWnHkBoJs9L-11" value="Lowering&lt;div&gt;(Camel)&lt;/div&gt;" style="rounded=1;whiteSpace=wrap;html=1;fontSize=14;fillColor=#fff2cc;strokeColor=#000000;" parent="1" vertex="1">
          <mxGeometry x="530" y="410" width="90" height="50" as="geometry" />
        </mxCell>
        <mxCell id="MDP3Hl-DzXWnHkBoJs9L-12" value="KNE&amp;nbsp;&lt;span style=&quot;background-color: transparent; color: light-dark(rgb(0, 0, 0), rgb(255, 255, 255));&quot;&gt;Descriptor&lt;/span&gt;&lt;div&gt;&lt;span style=&quot;background-color: transparent; color: light-dark(rgb(0, 0, 0), rgb(255, 255, 255));&quot;&gt;(File)&lt;/span&gt;&lt;/div&gt;" style="rounded=1;whiteSpace=wrap;html=1;fontSize=14;fillColor=#f5f5f5;strokeColor=#000000;" parent="1" vertex="1">
          <mxGeometry x="690" y="325" width="120" height="60" as="geometry" />
        </mxCell>
        <mxCell id="MDP3Hl-DzXWnHkBoJs9L-28" value="NetBox Cables&lt;div&gt;&lt;span style=&quot;background-color: transparent; color: light-dark(rgb(0, 0, 0), rgb(255, 255, 255));&quot;&gt;(REST)&lt;/span&gt;&lt;/div&gt;" style="rounded=1;whiteSpace=wrap;html=1;fontSize=14;fillColor=#f5f5f5;fontColor=#333333;strokeColor=#000000;" parent="1" vertex="1">
          <mxGeometry x="20" y="363.75" width="130" height="62.5" as="geometry" />
        </mxCell>
        <mxCell id="MDP3Hl-DzXWnHkBoJs9L-29" value="NetBox Addresses&lt;div&gt;&lt;span style=&quot;background-color: transparent; color: light-dark(rgb(0, 0, 0), rgb(255, 255, 255));&quot;&gt;(REST)&lt;/span&gt;&lt;/div&gt;" style="rounded=1;whiteSpace=wrap;html=1;fontSize=14;fillColor=#f5f5f5;fontColor=#333333;strokeColor=#000000;" parent="1" vertex="1">
          <mxGeometry x="20" y="433.75" width="130" height="62.5" as="geometry" />
        </mxCell>
        <mxCell id="MDP3Hl-DzXWnHkBoJs9L-31" value="DATA FABRIC" style="text;html=1;align=left;verticalAlign=middle;resizable=0;points=[];autosize=1;strokeColor=none;fillColor=none;fontSize=18;fontColor=#003366;" parent="1" vertex="1">
          <mxGeometry x="210" y="590" width="140" height="40" as="geometry" />
        </mxCell>
        <mxCell id="MDP3Hl-DzXWnHkBoJs9L-36" value="CSV" style="edgeStyle=orthogonalEdgeStyle;rounded=0;orthogonalLoop=1;jettySize=auto;html=1;exitX=1;exitY=0.5;exitDx=0;exitDy=0;entryX=0;entryY=0.5;entryDx=0;entryDy=0;fontStyle=1;strokeColor=default;strokeWidth=2;align=center;verticalAlign=middle;fontFamily=Helvetica;fontSize=11;fontColor=default;labelBorderColor=default;labelBackgroundColor=default;endArrow=classic;" parent="1" source="MDP3Hl-DzXWnHkBoJs9L-34" target="MDP3Hl-DzXWnHkBoJs9L-35" edge="1">
          <mxGeometry relative="1" as="geometry" />
        </mxCell>
        <mxCell id="MDP3Hl-DzXWnHkBoJs9L-34" value="Docker Images&lt;div&gt;(File)&lt;/div&gt;" style="rounded=1;whiteSpace=wrap;html=1;fontSize=14;fillColor=#f5f5f5;fontColor=#333333;strokeColor=#000000;" parent="1" vertex="1">
          <mxGeometry x="20" y="507.5" width="130" height="62.5" as="geometry" />
        </mxCell>
        <mxCell id="MDP3Hl-DzXWnHkBoJs9L-37" value="&lt;span style=&quot;font-weight: 700;&quot;&gt;RDF&lt;/span&gt;" style="edgeStyle=orthogonalEdgeStyle;rounded=0;orthogonalLoop=1;jettySize=auto;html=1;strokeColor=default;strokeWidth=2;align=center;verticalAlign=middle;fontFamily=Helvetica;fontSize=11;fontColor=default;fontStyle=1;labelBorderColor=default;labelBackgroundColor=default;endArrow=classic;" parent="1" source="MDP3Hl-DzXWnHkBoJs9L-35" target="MDP3Hl-DzXWnHkBoJs9L-10" edge="1">
          <mxGeometry relative="1" as="geometry">
            <Array as="points">
              <mxPoint x="360" y="539" />
              <mxPoint x="360" y="539" />
            </Array>
          </mxGeometry>
        </mxCell>
        <mxCell id="MDP3Hl-DzXWnHkBoJs9L-35" value="Lifting&lt;div&gt;(Camel)&lt;/div&gt;" style="rounded=1;whiteSpace=wrap;html=1;fontSize=14;fillColor=#fff2cc;strokeColor=#000000;" parent="1" vertex="1">
          <mxGeometry x="230" y="513.75" width="90" height="50" as="geometry" />
        </mxCell>
        <mxCell id="Jwh1fhb28KCc5R-YjGfv-2" value="FRR&amp;nbsp;&lt;span style=&quot;background-color: transparent; color: light-dark(rgb(0, 0, 0), rgb(255, 255, 255));&quot;&gt;Config&lt;/span&gt;&lt;div&gt;&lt;span style=&quot;background-color: transparent; color: light-dark(rgb(0, 0, 0), rgb(255, 255, 255));&quot;&gt;(File)&lt;/span&gt;&lt;/div&gt;" style="rounded=1;whiteSpace=wrap;html=1;fontSize=14;fillColor=#f5f5f5;strokeColor=#000000;" parent="1" vertex="1">
          <mxGeometry x="693" y="408" width="120" height="60" as="geometry" />
        </mxCell>
        <mxCell id="MDP3Hl-DzXWnHkBoJs9L-13" value="FRR&amp;nbsp;&lt;span style=&quot;background-color: transparent; color: light-dark(rgb(0, 0, 0), rgb(255, 255, 255));&quot;&gt;Config&lt;/span&gt;&lt;div&gt;&lt;span style=&quot;background-color: transparent; color: light-dark(rgb(0, 0, 0), rgb(255, 255, 255));&quot;&gt;(File)&lt;/span&gt;&lt;/div&gt;" style="rounded=1;whiteSpace=wrap;html=1;fontSize=14;fillColor=#f5f5f5;strokeColor=#000000;" parent="1" vertex="1">
          <mxGeometry x="690" y="405" width="120" height="60" as="geometry" />
        </mxCell>
      </root>
    </mxGraphModel>
  </diagram>
  <diagram name="openstack" id="zrHWwE9QUVjGYVwHLSNz">
    <mxGraphModel dx="946" dy="625" grid="1" gridSize="10" guides="1" tooltips="1" connect="1" arrows="1" fold="1" page="1" pageScale="1" pageWidth="850" pageHeight="1100" math="0" shadow="0">
      <root>
        <mxCell id="zT1i-sMtycx-e7PjYLA4-0" />
        <mxCell id="zT1i-sMtycx-e7PjYLA4-1" parent="zT1i-sMtycx-e7PjYLA4-0" />
        <mxCell id="Sjj6w9T4ayMCTHYZeTJu-0" value="Twin Network" style="text;html=1;align=left;verticalAlign=middle;resizable=0;points=[];autosize=1;strokeColor=none;fillColor=none;fontSize=20;fontColor=#003366;strokeWidth=2;" vertex="1" parent="zT1i-sMtycx-e7PjYLA4-1">
          <mxGeometry x="1450" y="930" width="140" height="40" as="geometry" />
        </mxCell>
        <mxCell id="Sjj6w9T4ayMCTHYZeTJu-1" value="" style="rounded=0;whiteSpace=wrap;html=1;strokeWidth=2;fillColor=#f5f5f5;fontColor=#333333;strokeColor=#003366;" vertex="1" parent="zT1i-sMtycx-e7PjYLA4-1">
          <mxGeometry x="1420" y="540" width="190" height="390" as="geometry" />
        </mxCell>
        <mxCell id="Sjj6w9T4ayMCTHYZeTJu-2" value="" style="rounded=0;whiteSpace=wrap;html=1;strokeWidth=2;fillColor=#f5f5f5;fontColor=#333333;strokeColor=#003366;" vertex="1" parent="zT1i-sMtycx-e7PjYLA4-1">
          <mxGeometry x="740" y="540" width="190" height="390" as="geometry" />
        </mxCell>
        <mxCell id="Sjj6w9T4ayMCTHYZeTJu-3" value="FRR&amp;nbsp;&lt;span style=&quot;background-color: transparent; color: light-dark(rgb(0, 0, 0), rgb(255, 255, 255));&quot;&gt;Config&lt;/span&gt;&lt;div&gt;&lt;span style=&quot;background-color: transparent; color: light-dark(rgb(0, 0, 0), rgb(255, 255, 255));&quot;&gt;(File)&lt;/span&gt;&lt;/div&gt;" style="rounded=1;whiteSpace=wrap;html=1;fontSize=14;strokeWidth=2;" vertex="1" parent="zT1i-sMtycx-e7PjYLA4-1">
          <mxGeometry x="1466" y="755.5" width="120" height="60" as="geometry" />
        </mxCell>
        <mxCell id="Sjj6w9T4ayMCTHYZeTJu-4" value="" style="rounded=0;whiteSpace=wrap;html=1;fillColor=light-dark(#e1ebf9, #1d293b);strokeColor=#003366;strokeWidth=2;" vertex="1" parent="zT1i-sMtycx-e7PjYLA4-1">
          <mxGeometry x="960" y="540" width="430" height="390" as="geometry" />
        </mxCell>
        <mxCell id="Sjj6w9T4ayMCTHYZeTJu-5" value="RDF" style="edgeStyle=orthogonalEdgeStyle;rounded=0;orthogonalLoop=1;jettySize=auto;html=1;strokeColor=default;strokeWidth=2;align=center;verticalAlign=middle;fontFamily=Helvetica;fontSize=11;fontColor=default;labelBackgroundColor=default;endArrow=classic;labelBorderColor=default;fontStyle=1" edge="1" parent="zT1i-sMtycx-e7PjYLA4-1" source="Sjj6w9T4ayMCTHYZeTJu-6" target="Sjj6w9T4ayMCTHYZeTJu-22">
          <mxGeometry relative="1" as="geometry">
            <Array as="points">
              <mxPoint x="1130" y="595" />
              <mxPoint x="1130" y="595" />
            </Array>
            <mxPoint as="offset" />
          </mxGeometry>
        </mxCell>
        <mxCell id="Sjj6w9T4ayMCTHYZeTJu-6" value="Lifting&lt;div&gt;(Camel)&lt;/div&gt;" style="rounded=1;whiteSpace=wrap;html=1;fontSize=14;fillColor=#fff2cc;strokeColor=#000000;strokeWidth=2;" vertex="1" parent="zT1i-sMtycx-e7PjYLA4-1">
          <mxGeometry x="980" y="570" width="90" height="50" as="geometry" />
        </mxCell>
        <mxCell id="Sjj6w9T4ayMCTHYZeTJu-7" value="RDF" style="edgeStyle=orthogonalEdgeStyle;rounded=0;orthogonalLoop=1;jettySize=auto;html=1;strokeColor=default;strokeWidth=2;align=center;verticalAlign=middle;fontFamily=Helvetica;fontSize=11;fontColor=default;labelBackgroundColor=default;endArrow=classic;labelBorderColor=default;fontStyle=1" edge="1" parent="zT1i-sMtycx-e7PjYLA4-1" target="Sjj6w9T4ayMCTHYZeTJu-9">
          <mxGeometry relative="1" as="geometry">
            <mxPoint x="1220" y="699.5" as="sourcePoint" />
            <Array as="points">
              <mxPoint x="1240" y="699.5" />
              <mxPoint x="1240" y="699.5" />
            </Array>
          </mxGeometry>
        </mxCell>
        <mxCell id="Sjj6w9T4ayMCTHYZeTJu-8" value="YAML" style="edgeStyle=orthogonalEdgeStyle;rounded=0;orthogonalLoop=1;jettySize=auto;html=1;strokeColor=default;strokeWidth=2;align=center;verticalAlign=middle;fontFamily=Helvetica;fontSize=11;fontColor=default;labelBackgroundColor=default;endArrow=classic;labelBorderColor=default;fontStyle=1" edge="1" parent="zT1i-sMtycx-e7PjYLA4-1" source="Sjj6w9T4ayMCTHYZeTJu-9" target="Sjj6w9T4ayMCTHYZeTJu-26">
          <mxGeometry relative="1" as="geometry" />
        </mxCell>
        <mxCell id="Sjj6w9T4ayMCTHYZeTJu-9" value="Lowering&lt;div&gt;(Camel)&lt;/div&gt;" style="rounded=1;whiteSpace=wrap;html=1;fontSize=14;fillColor=#fff2cc;strokeColor=#000000;strokeWidth=2;" vertex="1" parent="zT1i-sMtycx-e7PjYLA4-1">
          <mxGeometry x="1280" y="674.5" width="90" height="50" as="geometry" />
        </mxCell>
        <mxCell id="Sjj6w9T4ayMCTHYZeTJu-10" value="RDF" style="edgeStyle=orthogonalEdgeStyle;rounded=0;orthogonalLoop=1;jettySize=auto;html=1;strokeColor=default;strokeWidth=2;align=center;verticalAlign=middle;fontFamily=Helvetica;fontSize=11;fontColor=default;labelBackgroundColor=default;endArrow=classic;labelBorderColor=default;fontStyle=1" edge="1" parent="zT1i-sMtycx-e7PjYLA4-1" source="Sjj6w9T4ayMCTHYZeTJu-11" target="Sjj6w9T4ayMCTHYZeTJu-22">
          <mxGeometry relative="1" as="geometry">
            <Array as="points">
              <mxPoint x="1130" y="665" />
              <mxPoint x="1130" y="665" />
            </Array>
          </mxGeometry>
        </mxCell>
        <mxCell id="Sjj6w9T4ayMCTHYZeTJu-11" value="Lifting&lt;div&gt;(Camel)&lt;/div&gt;" style="rounded=1;whiteSpace=wrap;html=1;fontSize=14;fillColor=#fff2cc;strokeColor=#000000;strokeWidth=2;" vertex="1" parent="zT1i-sMtycx-e7PjYLA4-1">
          <mxGeometry x="980" y="640" width="90" height="50" as="geometry" />
        </mxCell>
        <mxCell id="Sjj6w9T4ayMCTHYZeTJu-12" value="JSON" style="edgeStyle=orthogonalEdgeStyle;rounded=0;orthogonalLoop=1;jettySize=auto;html=1;strokeWidth=2;labelBorderColor=default;spacing=2;spacingBottom=0;spacingLeft=0;fontStyle=1" edge="1" parent="zT1i-sMtycx-e7PjYLA4-1" source="Sjj6w9T4ayMCTHYZeTJu-13" target="Sjj6w9T4ayMCTHYZeTJu-6">
          <mxGeometry relative="1" as="geometry">
            <mxPoint as="offset" />
          </mxGeometry>
        </mxCell>
        <mxCell id="Sjj6w9T4ayMCTHYZeTJu-13" value="&lt;div&gt;Nodes&lt;/div&gt;&lt;div&gt;&lt;span style=&quot;background-color: transparent; color: light-dark(rgb(0, 0, 0), rgb(255, 255, 255));&quot;&gt;(Nova API)&lt;/span&gt;&lt;/div&gt;" style="rounded=1;whiteSpace=wrap;html=1;fontSize=14;strokeWidth=2;" vertex="1" parent="zT1i-sMtycx-e7PjYLA4-1">
          <mxGeometry x="760" y="565" width="130" height="60" as="geometry" />
        </mxCell>
        <mxCell id="Sjj6w9T4ayMCTHYZeTJu-14" value="JSON" style="edgeStyle=orthogonalEdgeStyle;rounded=0;orthogonalLoop=1;jettySize=auto;html=1;strokeWidth=2;labelBorderColor=default;fontStyle=1" edge="1" parent="zT1i-sMtycx-e7PjYLA4-1" source="Sjj6w9T4ayMCTHYZeTJu-15" target="Sjj6w9T4ayMCTHYZeTJu-11">
          <mxGeometry relative="1" as="geometry" />
        </mxCell>
        <mxCell id="Sjj6w9T4ayMCTHYZeTJu-15" value="Interfaces&lt;br&gt;&lt;div&gt;&lt;span style=&quot;background-color: transparent; color: light-dark(rgb(0, 0, 0), rgb(255, 255, 255));&quot;&gt;(Neutron API)&lt;/span&gt;&lt;/div&gt;" style="rounded=1;whiteSpace=wrap;html=1;fontSize=14;strokeWidth=2;" vertex="1" parent="zT1i-sMtycx-e7PjYLA4-1">
          <mxGeometry x="760" y="633.75" width="130" height="62.5" as="geometry" />
        </mxCell>
        <mxCell id="Sjj6w9T4ayMCTHYZeTJu-16" value="JSON" style="edgeStyle=orthogonalEdgeStyle;rounded=0;orthogonalLoop=1;jettySize=auto;html=1;strokeWidth=2;labelBorderColor=default;fontStyle=1" edge="1" parent="zT1i-sMtycx-e7PjYLA4-1" source="Sjj6w9T4ayMCTHYZeTJu-27" target="Sjj6w9T4ayMCTHYZeTJu-19">
          <mxGeometry relative="1" as="geometry">
            <mxPoint x="900" y="735" as="sourcePoint" />
          </mxGeometry>
        </mxCell>
        <mxCell id="Sjj6w9T4ayMCTHYZeTJu-17" value="JSON" style="edgeStyle=orthogonalEdgeStyle;rounded=0;orthogonalLoop=1;jettySize=auto;html=1;strokeWidth=2;labelBorderColor=default;fontStyle=1" edge="1" parent="zT1i-sMtycx-e7PjYLA4-1" source="Sjj6w9T4ayMCTHYZeTJu-28" target="Sjj6w9T4ayMCTHYZeTJu-21">
          <mxGeometry relative="1" as="geometry">
            <mxPoint x="900" y="805" as="sourcePoint" />
          </mxGeometry>
        </mxCell>
        <mxCell id="Sjj6w9T4ayMCTHYZeTJu-18" value="RDF" style="edgeStyle=orthogonalEdgeStyle;rounded=0;orthogonalLoop=1;jettySize=auto;html=1;strokeColor=default;strokeWidth=2;align=center;verticalAlign=middle;fontFamily=Helvetica;fontSize=11;fontColor=default;labelBackgroundColor=default;endArrow=classic;labelBorderColor=default;fontStyle=1" edge="1" parent="zT1i-sMtycx-e7PjYLA4-1" source="Sjj6w9T4ayMCTHYZeTJu-19" target="Sjj6w9T4ayMCTHYZeTJu-22">
          <mxGeometry relative="1" as="geometry">
            <Array as="points">
              <mxPoint x="1130" y="735" />
              <mxPoint x="1130" y="735" />
            </Array>
          </mxGeometry>
        </mxCell>
        <mxCell id="Sjj6w9T4ayMCTHYZeTJu-19" value="Lifting&lt;div&gt;(Camel)&lt;/div&gt;" style="rounded=1;whiteSpace=wrap;html=1;fontSize=14;fillColor=#fff2cc;strokeColor=#000000;strokeWidth=2;" vertex="1" parent="zT1i-sMtycx-e7PjYLA4-1">
          <mxGeometry x="980" y="710" width="90" height="50" as="geometry" />
        </mxCell>
        <mxCell id="Sjj6w9T4ayMCTHYZeTJu-20" value="RDF" style="edgeStyle=orthogonalEdgeStyle;rounded=0;orthogonalLoop=1;jettySize=auto;html=1;strokeColor=default;strokeWidth=2;align=center;verticalAlign=middle;fontFamily=Helvetica;fontSize=11;fontColor=default;labelBackgroundColor=default;endArrow=classic;labelBorderColor=default;fontStyle=1" edge="1" parent="zT1i-sMtycx-e7PjYLA4-1" source="Sjj6w9T4ayMCTHYZeTJu-21" target="Sjj6w9T4ayMCTHYZeTJu-22">
          <mxGeometry relative="1" as="geometry">
            <Array as="points">
              <mxPoint x="1130" y="805" />
              <mxPoint x="1130" y="805" />
            </Array>
          </mxGeometry>
        </mxCell>
        <mxCell id="Sjj6w9T4ayMCTHYZeTJu-21" value="Lifting&lt;div&gt;(Camel)&lt;/div&gt;" style="rounded=1;whiteSpace=wrap;html=1;fontSize=14;fillColor=#fff2cc;strokeColor=#000000;strokeWidth=2;" vertex="1" parent="zT1i-sMtycx-e7PjYLA4-1">
          <mxGeometry x="980" y="780" width="90" height="50" as="geometry" />
        </mxCell>
        <mxCell id="Sjj6w9T4ayMCTHYZeTJu-22" value="Knowledge&lt;div&gt;Graph&lt;/div&gt;&lt;div&gt;(GraphDB)&lt;/div&gt;" style="rounded=1;whiteSpace=wrap;html=1;fontSize=14;fillColor=#d5e8d4;strokeColor=#000000;strokeWidth=2;" vertex="1" parent="zT1i-sMtycx-e7PjYLA4-1">
          <mxGeometry x="1130" y="570" width="90" height="330" as="geometry" />
        </mxCell>
        <mxCell id="Sjj6w9T4ayMCTHYZeTJu-23" value="RDF" style="edgeStyle=orthogonalEdgeStyle;rounded=0;orthogonalLoop=1;jettySize=auto;html=1;strokeColor=default;strokeWidth=2;align=center;verticalAlign=middle;fontFamily=Helvetica;fontSize=11;fontColor=default;labelBackgroundColor=default;endArrow=classic;labelBorderColor=default;fontStyle=1" edge="1" parent="zT1i-sMtycx-e7PjYLA4-1" target="Sjj6w9T4ayMCTHYZeTJu-25">
          <mxGeometry relative="1" as="geometry">
            <mxPoint x="1220" y="779.5" as="sourcePoint" />
            <Array as="points">
              <mxPoint x="1270" y="779.5" />
              <mxPoint x="1270" y="779.5" />
            </Array>
          </mxGeometry>
        </mxCell>
        <mxCell id="Sjj6w9T4ayMCTHYZeTJu-24" value="TXT" style="edgeStyle=orthogonalEdgeStyle;rounded=0;orthogonalLoop=1;jettySize=auto;html=1;strokeColor=default;strokeWidth=2;align=center;verticalAlign=middle;fontFamily=Helvetica;fontSize=11;fontColor=default;labelBackgroundColor=default;endArrow=classic;labelBorderColor=default;fontStyle=1" edge="1" parent="zT1i-sMtycx-e7PjYLA4-1" source="Sjj6w9T4ayMCTHYZeTJu-25" target="Sjj6w9T4ayMCTHYZeTJu-31">
          <mxGeometry relative="1" as="geometry" />
        </mxCell>
        <mxCell id="Sjj6w9T4ayMCTHYZeTJu-25" value="Lowering&lt;div&gt;(Camel)&lt;/div&gt;" style="rounded=1;whiteSpace=wrap;html=1;fontSize=14;fillColor=#fff2cc;strokeColor=#000000;strokeWidth=2;" vertex="1" parent="zT1i-sMtycx-e7PjYLA4-1">
          <mxGeometry x="1280" y="754.5" width="90" height="50" as="geometry" />
        </mxCell>
        <mxCell id="Sjj6w9T4ayMCTHYZeTJu-26" value="KNE YAML&amp;nbsp;&lt;div&gt;&lt;span style=&quot;background-color: transparent; color: light-dark(rgb(0, 0, 0), rgb(255, 255, 255));&quot;&gt;Descriptor&lt;/span&gt;&lt;div&gt;&lt;span style=&quot;background-color: transparent; color: light-dark(rgb(0, 0, 0), rgb(255, 255, 255));&quot;&gt;(File)&lt;/span&gt;&lt;/div&gt;&lt;/div&gt;" style="rounded=1;whiteSpace=wrap;html=1;fontSize=14;strokeWidth=2;" vertex="1" parent="zT1i-sMtycx-e7PjYLA4-1">
          <mxGeometry x="1460" y="669.5" width="120" height="60" as="geometry" />
        </mxCell>
        <mxCell id="Sjj6w9T4ayMCTHYZeTJu-27" value="Links&lt;br&gt;&lt;div&gt;&lt;span style=&quot;background-color: transparent; color: light-dark(rgb(0, 0, 0), rgb(255, 255, 255));&quot;&gt;(Neutron API)&lt;/span&gt;&lt;/div&gt;" style="rounded=1;whiteSpace=wrap;html=1;fontSize=14;strokeWidth=2;" vertex="1" parent="zT1i-sMtycx-e7PjYLA4-1">
          <mxGeometry x="760" y="703.75" width="130" height="62.5" as="geometry" />
        </mxCell>
        <mxCell id="Sjj6w9T4ayMCTHYZeTJu-28" value="IP Networks&lt;br&gt;&lt;div&gt;&lt;span style=&quot;background-color: transparent; color: light-dark(rgb(0, 0, 0), rgb(255, 255, 255));&quot;&gt;(Neutron API)&lt;/span&gt;&lt;/div&gt;" style="rounded=1;whiteSpace=wrap;html=1;fontSize=14;strokeWidth=2;" vertex="1" parent="zT1i-sMtycx-e7PjYLA4-1">
          <mxGeometry x="760" y="773.75" width="130" height="62.5" as="geometry" />
        </mxCell>
        <mxCell id="Sjj6w9T4ayMCTHYZeTJu-29" value="CANDIL Data Fabric" style="text;html=1;align=left;verticalAlign=middle;resizable=0;points=[];autosize=1;strokeColor=none;fillColor=none;fontSize=20;fontColor=#003366;strokeWidth=2;" vertex="1" parent="zT1i-sMtycx-e7PjYLA4-1">
          <mxGeometry x="1070" y="930" width="210" height="40" as="geometry" />
        </mxCell>
        <mxCell id="Sjj6w9T4ayMCTHYZeTJu-30" value="FRR&amp;nbsp;&lt;span style=&quot;background-color: transparent; color: light-dark(rgb(0, 0, 0), rgb(255, 255, 255));&quot;&gt;Config&lt;/span&gt;&lt;div&gt;&lt;span style=&quot;background-color: transparent; color: light-dark(rgb(0, 0, 0), rgb(255, 255, 255));&quot;&gt;(File)&lt;/span&gt;&lt;/div&gt;" style="rounded=1;whiteSpace=wrap;html=1;fontSize=14;strokeWidth=2;" vertex="1" parent="zT1i-sMtycx-e7PjYLA4-1">
          <mxGeometry x="1463" y="752.5" width="120" height="60" as="geometry" />
        </mxCell>
        <mxCell id="Sjj6w9T4ayMCTHYZeTJu-31" value="FRR&amp;nbsp;&lt;span style=&quot;background-color: transparent; color: light-dark(rgb(0, 0, 0), rgb(255, 255, 255));&quot;&gt;Config&lt;/span&gt;&lt;div&gt;&lt;span style=&quot;background-color: transparent; color: light-dark(rgb(0, 0, 0), rgb(255, 255, 255));&quot;&gt;(File)&lt;/span&gt;&lt;/div&gt;" style="rounded=1;whiteSpace=wrap;html=1;fontSize=14;strokeWidth=2;" vertex="1" parent="zT1i-sMtycx-e7PjYLA4-1">
          <mxGeometry x="1460" y="749.5" width="120" height="60" as="geometry" />
        </mxCell>
        <mxCell id="Sjj6w9T4ayMCTHYZeTJu-32" value="1" style="ellipse;whiteSpace=wrap;html=1;fontStyle=1;strokeWidth=2;fontSize=14;" vertex="1" parent="zT1i-sMtycx-e7PjYLA4-1">
          <mxGeometry x="900" y="550" width="20" height="20" as="geometry" />
        </mxCell>
        <mxCell id="Sjj6w9T4ayMCTHYZeTJu-33" value="2" style="ellipse;whiteSpace=wrap;html=1;fontStyle=1;strokeWidth=2;fontSize=14;" vertex="1" parent="zT1i-sMtycx-e7PjYLA4-1">
          <mxGeometry x="900" y="625" width="20" height="20" as="geometry" />
        </mxCell>
        <mxCell id="Sjj6w9T4ayMCTHYZeTJu-34" value="3" style="ellipse;whiteSpace=wrap;html=1;fontStyle=1;strokeWidth=2;fontSize=14;" vertex="1" parent="zT1i-sMtycx-e7PjYLA4-1">
          <mxGeometry x="900" y="696.25" width="20" height="20" as="geometry" />
        </mxCell>
        <mxCell id="Sjj6w9T4ayMCTHYZeTJu-35" value="4" style="ellipse;whiteSpace=wrap;html=1;fontStyle=1;strokeWidth=2;fontSize=14;" vertex="1" parent="zT1i-sMtycx-e7PjYLA4-1">
          <mxGeometry x="900" y="766.25" width="20" height="20" as="geometry" />
        </mxCell>
        <mxCell id="Sjj6w9T4ayMCTHYZeTJu-36" value="5" style="ellipse;whiteSpace=wrap;html=1;fontStyle=1;strokeWidth=2;fontSize=14;" vertex="1" parent="zT1i-sMtycx-e7PjYLA4-1">
          <mxGeometry x="900" y="836.25" width="20" height="20" as="geometry" />
        </mxCell>
        <mxCell id="Sjj6w9T4ayMCTHYZeTJu-37" value="6" style="ellipse;whiteSpace=wrap;html=1;fontStyle=1;strokeWidth=2;fontSize=14;" vertex="1" parent="zT1i-sMtycx-e7PjYLA4-1">
          <mxGeometry x="1430" y="654.5" width="20" height="20" as="geometry" />
        </mxCell>
        <mxCell id="Sjj6w9T4ayMCTHYZeTJu-38" value="CSV" style="edgeStyle=orthogonalEdgeStyle;rounded=0;orthogonalLoop=1;jettySize=auto;html=1;exitX=1;exitY=0.5;exitDx=0;exitDy=0;fontStyle=1;strokeColor=default;strokeWidth=2;align=center;verticalAlign=middle;fontFamily=Helvetica;fontSize=11;fontColor=default;labelBorderColor=default;labelBackgroundColor=default;endArrow=classic;" edge="1" parent="zT1i-sMtycx-e7PjYLA4-1" source="Sjj6w9T4ayMCTHYZeTJu-39" target="Sjj6w9T4ayMCTHYZeTJu-41">
          <mxGeometry relative="1" as="geometry" />
        </mxCell>
        <mxCell id="Sjj6w9T4ayMCTHYZeTJu-39" value="Docker Images&lt;div&gt;(File)&lt;/div&gt;" style="rounded=1;whiteSpace=wrap;html=1;fontSize=14;strokeWidth=2;" vertex="1" parent="zT1i-sMtycx-e7PjYLA4-1">
          <mxGeometry x="760" y="847.5" width="130" height="62.5" as="geometry" />
        </mxCell>
        <mxCell id="Sjj6w9T4ayMCTHYZeTJu-40" value="&lt;span style=&quot;font-weight: 700;&quot;&gt;RDF&lt;/span&gt;" style="edgeStyle=orthogonalEdgeStyle;rounded=0;orthogonalLoop=1;jettySize=auto;html=1;strokeColor=default;strokeWidth=2;align=center;verticalAlign=middle;fontFamily=Helvetica;fontSize=11;fontColor=default;fontStyle=1;labelBorderColor=default;labelBackgroundColor=default;endArrow=classic;" edge="1" parent="zT1i-sMtycx-e7PjYLA4-1" source="Sjj6w9T4ayMCTHYZeTJu-41" target="Sjj6w9T4ayMCTHYZeTJu-22">
          <mxGeometry relative="1" as="geometry">
            <Array as="points">
              <mxPoint x="1100" y="879" />
              <mxPoint x="1100" y="880" />
            </Array>
            <mxPoint x="1130" y="879" as="targetPoint" />
          </mxGeometry>
        </mxCell>
        <mxCell id="Sjj6w9T4ayMCTHYZeTJu-41" value="Lifting&lt;div&gt;(Camel)&lt;/div&gt;" style="rounded=1;whiteSpace=wrap;html=1;fontSize=14;fillColor=#fff2cc;strokeColor=#000000;strokeWidth=2;" vertex="1" parent="zT1i-sMtycx-e7PjYLA4-1">
          <mxGeometry x="980" y="853.75" width="90" height="50" as="geometry" />
        </mxCell>
        <mxCell id="Sjj6w9T4ayMCTHYZeTJu-42" value="7" style="ellipse;whiteSpace=wrap;html=1;fontStyle=1;strokeWidth=2;fontSize=14;" vertex="1" parent="zT1i-sMtycx-e7PjYLA4-1">
          <mxGeometry x="1430" y="735.5" width="20" height="20" as="geometry" />
        </mxCell>
        <mxCell id="Sjj6w9T4ayMCTHYZeTJu-43" value="Real Network" style="text;html=1;align=left;verticalAlign=middle;resizable=0;points=[];autosize=1;strokeColor=none;fillColor=none;fontSize=20;fontColor=#003366;strokeWidth=2;" vertex="1" parent="zT1i-sMtycx-e7PjYLA4-1">
          <mxGeometry x="765" y="930" width="140" height="40" as="geometry" />
        </mxCell>
      </root>
    </mxGraphModel>
  </diagram>
</mxfile>
